<?xml version="1.0" standalone="no"?>
<!DOCTYPE svg PUBLIC "-//W3C//DTD SVG 20010904//EN"
 "http://www.w3.org/TR/2001/REC-SVG-20010904/DTD/svg10.dtd">
<svg version="1.0" xmlns="http://www.w3.org/2000/svg"
 width="186.000000pt" height="186.000000pt" viewBox="0 0 186.000000 186.000000"
 preserveAspectRatio="xMidYMid meet">
<metadata>
Created by potrace 1.11, written by Peter Selinger 2001-2013
</metadata>
<g transform="translate(0.000000,186.000000) scale(0.100000,-0.100000)"
fill="#000000" stroke="none">
<path d="M820 1815 c0 -2 16 -12 35 -21 55 -26 119 -104 140 -171 18 -54 19
-104 21 -698 1 -352 2 -644 3 -648 0 -5 18 -7 39 -5 l37 3 0 625 c1 344 -3
647 -8 674 -15 85 -59 152 -127 193 -33 20 -140 57 -140 48z"/>
<path d="M728 1773 c44 -86 46 -116 48 -813 2 -366 3 -671 4 -677 0 -8 15 -13
39 -13 l38 0 0 646 c0 356 -4 668 -9 693 -14 77 -69 164 -121 192 -17 10 -17
8 1 -28z"/>
<path d="M782 1790 c35 -27 83 -105 99 -160 9 -34 13 -207 15 -695 1 -357 2
-653 3 -657 2 -13 69 -9 73 5 2 6 4 302 3 657 -2 636 -2 646 -23 701 -31 78
-88 134 -162 157 l-35 12 27 -20z"/>
<path d="M344 1446 c-3 -7 -4 -269 -2 -582 l3 -569 28 -57 c33 -68 82 -111
155 -138 64 -24 100 -26 53 -3 -76 38 -142 135 -155 228 -3 22 -5 286 -6 588
l0 547 -35 0 c-21 0 -38 -6 -41 -14z"/>
<path d="M462 873 c3 -578 3 -589 25 -634 26 -57 79 -112 130 -135 21 -10 43
-20 48 -23 6 -2 -7 14 -27 37 -20 22 -45 56 -54 74 -42 81 -44 109 -44 701 l0
567 -40 0 -41 0 3 -587z"/>
<path d="M582 863 l3 -598 26 -55 c23 -49 96 -136 106 -126 2 2 -6 24 -17 50
-11 26 -23 64 -26 84 -3 21 -7 46 -9 57 -2 11 -4 282 -4 603 l-1 582 -40 0
-41 0 3 -597z"/>
<path d="M1211 878 c0 -321 -2 -593 -5 -604 -2 -12 -7 -39 -10 -60 -4 -22 -17
-60 -29 -86 -22 -44 -22 -46 -3 -36 50 27 91 87 111 165 13 49 16 150 17 628
l0 570 -40 3 -41 3 0 -583z"/>
<path d="M1327 873 c-1 -324 -6 -599 -9 -612 -15 -49 -50 -109 -85 -144 -20
-21 -34 -37 -31 -37 4 0 29 12 58 27 61 32 103 80 130 148 17 47 19 84 19 628
l1 577 -40 0 -39 0 -4 -587z"/>
<path d="M1450 1453 c0 -5 -1 -269 -2 -588 l-3 -580 -23 -48 c-27 -56 -90
-123 -135 -142 -47 -21 -4 -19 53 2 70 25 129 79 159 142 l26 56 3 583 3 582
-41 0 c-22 0 -40 -3 -40 -7z"/>
</g>
</svg>
